%TF.GenerationSoftware,KiCad,Pcbnew,9.0.2+dfsg-1*%
%TF.CreationDate,2026-04-04T13:38:23+01:00*%
%TF.ProjectId,Roullete PCB,526f756c-6c65-4746-9520-5043422e6b69,rev?*%
%TF.SameCoordinates,Original*%
%TF.FileFunction,Copper,L2,Bot*%
%TF.FilePolarity,Positive*%
%FSLAX46Y46*%
G04 Gerber Fmt 4.6, Leading zero omitted, Abs format (unit mm)*
G04 Created by KiCad (PCBNEW 9.0.2+dfsg-1) date 2026-04-04 13:38:23*
%MOMM*%
%LPD*%
G01*
G04 APERTURE LIST*
G04 Aperture macros list*
%AMRoundRect*
0 Rectangle with rounded corners*
0 $1 Rounding radius*
0 $2 $3 $4 $5 $6 $7 $8 $9 X,Y pos of 4 corners*
0 Add a 4 corners polygon primitive as box body*
4,1,4,$2,$3,$4,$5,$6,$7,$8,$9,$2,$3,0*
0 Add four circle primitives for the rounded corners*
1,1,$1+$1,$2,$3*
1,1,$1+$1,$4,$5*
1,1,$1+$1,$6,$7*
1,1,$1+$1,$8,$9*
0 Add four rect primitives between the rounded corners*
20,1,$1+$1,$2,$3,$4,$5,0*
20,1,$1+$1,$4,$5,$6,$7,0*
20,1,$1+$1,$6,$7,$8,$9,0*
20,1,$1+$1,$8,$9,$2,$3,0*%
G04 Aperture macros list end*
%TA.AperFunction,ComponentPad*%
%ADD10C,1.600000*%
%TD*%
%TA.AperFunction,ComponentPad*%
%ADD11RoundRect,0.250000X-0.550000X-0.550000X0.550000X-0.550000X0.550000X0.550000X-0.550000X0.550000X0*%
%TD*%
%TA.AperFunction,ComponentPad*%
%ADD12RoundRect,0.250000X0.550000X-0.550000X0.550000X0.550000X-0.550000X0.550000X-0.550000X-0.550000X0*%
%TD*%
%TA.AperFunction,ComponentPad*%
%ADD13R,1.700000X1.700000*%
%TD*%
%TA.AperFunction,ComponentPad*%
%ADD14C,1.700000*%
%TD*%
%TA.AperFunction,ComponentPad*%
%ADD15R,1.800000X1.800000*%
%TD*%
%TA.AperFunction,ComponentPad*%
%ADD16C,1.800000*%
%TD*%
%TA.AperFunction,ComponentPad*%
%ADD17RoundRect,0.250000X0.550000X0.550000X-0.550000X0.550000X-0.550000X-0.550000X0.550000X-0.550000X0*%
%TD*%
%TA.AperFunction,Conductor*%
%ADD18C,0.200000*%
%TD*%
G04 APERTURE END LIST*
D10*
%TO.P,U2,8,VCC*%
%TO.N,Net-(D1-K)*%
X174170000Y-101040000D03*
%TO.P,U2,7,DIS*%
%TO.N,Net-(D2-K)*%
X174170000Y-103580000D03*
%TO.P,U2,6,THR*%
%TO.N,Net-(D3-A)*%
X174170000Y-106120000D03*
%TO.P,U2,5,CV*%
%TO.N,unconnected-(U2-CV-Pad5)*%
X174170000Y-108660000D03*
%TO.P,U2,4,R*%
%TO.N,+9V*%
X166550000Y-108660000D03*
%TO.P,U2,3,Q*%
%TO.N,Net-(D3-A)*%
X166550000Y-106120000D03*
%TO.P,U2,2,TR*%
X166550000Y-103580000D03*
D11*
%TO.P,U2,1,GND*%
%TO.N,GND*%
X166550000Y-101040000D03*
%TD*%
D12*
%TO.P,U1,1,GND*%
%TO.N,GND*%
X167360000Y-62600000D03*
D10*
%TO.P,U1,2,TR*%
%TO.N,Net-(U1-THR)*%
X169900000Y-62600000D03*
%TO.P,U1,3,Q*%
%TO.N,Net-(D1-K)*%
X172440000Y-62600000D03*
%TO.P,U1,4,R*%
%TO.N,+9V*%
X174980000Y-62600000D03*
%TO.P,U1,5,CV*%
%TO.N,unconnected-(U1-CV-Pad5)*%
X174980000Y-54980000D03*
%TO.P,U1,6,THR*%
%TO.N,Net-(U1-THR)*%
X172440000Y-54980000D03*
%TO.P,U1,7,DIS*%
%TO.N,unconnected-(U1-DIS-Pad7)*%
X169900000Y-54980000D03*
%TO.P,U1,8,VCC*%
%TO.N,+9V*%
X167360000Y-54980000D03*
%TD*%
%TO.P,R5,1*%
%TO.N,Net-(D3-A)*%
X176590000Y-95820000D03*
%TO.P,R5,2*%
X176590000Y-85660000D03*
%TD*%
%TO.P,R4,1*%
%TO.N,GND*%
X162660000Y-86960000D03*
%TO.P,R4,2*%
%TO.N,Net-(D3-K)*%
X162660000Y-97120000D03*
%TD*%
%TO.P,R3,1*%
%TO.N,+9V*%
X162730000Y-74210000D03*
%TO.P,R3,2*%
%TO.N,Net-(D2-A)*%
X162730000Y-84370000D03*
%TD*%
%TO.P,R2,1*%
%TO.N,+9V*%
X162270000Y-61610000D03*
%TO.P,R2,2*%
%TO.N,Net-(D1-A)*%
X162270000Y-71770000D03*
%TD*%
%TO.P,R1,1*%
%TO.N,Net-(D1-K)*%
X176670000Y-83290000D03*
%TO.P,R1,2*%
%TO.N,Net-(U1-THR)*%
X176670000Y-73130000D03*
%TD*%
D13*
%TO.P,J1,1,Pin_1*%
%TO.N,+9V*%
X176590000Y-67435000D03*
D14*
%TO.P,J1,2,Pin_2*%
%TO.N,GND*%
X176590000Y-69975000D03*
%TD*%
D15*
%TO.P,D3,1,K*%
%TO.N,Net-(D3-K)*%
X167500000Y-92950000D03*
D16*
%TO.P,D3,2,A*%
%TO.N,Net-(D3-A)*%
X170040000Y-92950000D03*
%TD*%
D15*
%TO.P,D2,1,K*%
%TO.N,Net-(D2-K)*%
X167480000Y-82350000D03*
D16*
%TO.P,D2,2,A*%
%TO.N,Net-(D2-A)*%
X170020000Y-82350000D03*
%TD*%
D15*
%TO.P,D1,1,K*%
%TO.N,Net-(D1-K)*%
X167255000Y-71660000D03*
D16*
%TO.P,D1,2,A*%
%TO.N,Net-(D1-A)*%
X169795000Y-71660000D03*
%TD*%
D12*
%TO.P,C2,1*%
%TO.N,Net-(D3-A)*%
X160180000Y-103250000D03*
D10*
%TO.P,C2,2*%
%TO.N,GND*%
X160180000Y-101250000D03*
%TD*%
D17*
%TO.P,C1,1*%
%TO.N,Net-(U1-THR)*%
X162760000Y-57360000D03*
D10*
%TO.P,C1,2*%
%TO.N,GND*%
X160760000Y-57360000D03*
%TD*%
D18*
%TO.N,Net-(D2-A)*%
X162730000Y-84370000D02*
X165951000Y-81149000D01*
X165951000Y-81149000D02*
X168819000Y-81149000D01*
X168819000Y-81149000D02*
X170020000Y-82350000D01*
%TO.N,Net-(D3-K)*%
X167500000Y-92950000D02*
X166830000Y-92950000D01*
X166830000Y-92950000D02*
X162660000Y-97120000D01*
%TO.N,Net-(D1-K)*%
X174170000Y-101040000D02*
X174170000Y-85790000D01*
X174170000Y-85790000D02*
X176670000Y-83290000D01*
%TO.N,Net-(D3-A)*%
X176590000Y-85660000D02*
X176590000Y-95820000D01*
%TO.N,Net-(D1-K)*%
X176670000Y-83290000D02*
X176670000Y-81075000D01*
X176670000Y-81075000D02*
X167255000Y-71660000D01*
%TO.N,Net-(U1-THR)*%
X169900000Y-62600000D02*
X171001000Y-61499000D01*
X171001000Y-61499000D02*
X172896050Y-61499000D01*
X173879000Y-62481950D02*
X173879000Y-70339000D01*
X172896050Y-61499000D02*
X173879000Y-62481950D01*
X173879000Y-70339000D02*
X176670000Y-73130000D01*
%TO.N,Net-(D1-K)*%
X172440000Y-62600000D02*
X172440000Y-66475000D01*
X172440000Y-66475000D02*
X167255000Y-71660000D01*
%TD*%
M02*
