M48
; DRILL file {KiCad 9.0.2+dfsg-1} date 2026-04-04T13:38:19+0100
; FORMAT={-:-/ absolute / metric / decimal}
; #@! TF.CreationDate,2026-04-04T13:38:19+01:00
; #@! TF.GenerationSoftware,Kicad,Pcbnew,9.0.2+dfsg-1
; #@! TF.FileFunction,Plated,1,2,PTH
FMAT,2
METRIC
; #@! TA.AperFunction,Plated,PTH,ComponentDrill
T1C0.800
; #@! TA.AperFunction,Plated,PTH,ComponentDrill
T2C0.900
; #@! TA.AperFunction,Plated,PTH,ComponentDrill
T3C1.000
%
G90
G05
T1
X160.18Y-101.25
X160.18Y-103.25
X160.76Y-57.36
X162.27Y-61.61
X162.27Y-71.77
X162.66Y-86.96
X162.66Y-97.12
X162.73Y-74.21
X162.73Y-84.37
X162.76Y-57.36
X166.55Y-101.04
X166.55Y-103.58
X166.55Y-106.12
X166.55Y-108.66
X167.36Y-54.98
X167.36Y-62.6
X169.9Y-54.98
X169.9Y-62.6
X172.44Y-54.98
X172.44Y-62.6
X174.17Y-101.04
X174.17Y-103.58
X174.17Y-106.12
X174.17Y-108.66
X174.98Y-54.98
X174.98Y-62.6
X176.59Y-85.66
X176.59Y-95.82
X176.67Y-73.13
X176.67Y-83.29
T2
X167.255Y-71.66
X167.48Y-82.35
X167.5Y-92.95
X169.795Y-71.66
X170.02Y-82.35
X170.04Y-92.95
T3
X176.59Y-67.435
X176.59Y-69.975
M30
