%TF.GenerationSoftware,KiCad,Pcbnew,9.0.2+dfsg-1*%
%TF.CreationDate,2026-04-04T13:38:23+01:00*%
%TF.ProjectId,Roullete PCB,526f756c-6c65-4746-9520-5043422e6b69,rev?*%
%TF.SameCoordinates,Original*%
%TF.FileFunction,Legend,Top*%
%TF.FilePolarity,Positive*%
%FSLAX46Y46*%
G04 Gerber Fmt 4.6, Leading zero omitted, Abs format (unit mm)*
G04 Created by KiCad (PCBNEW 9.0.2+dfsg-1) date 2026-04-04 13:38:23*
%MOMM*%
%LPD*%
G01*
G04 APERTURE LIST*
%ADD10C,0.100000*%
%ADD11C,0.150000*%
%ADD12C,0.120000*%
G04 APERTURE END LIST*
D10*
X159503884Y-111392419D02*
X159503884Y-110392419D01*
X159503884Y-110868609D02*
X160075312Y-110868609D01*
X160075312Y-111392419D02*
X160075312Y-110392419D01*
X160980074Y-111392419D02*
X160980074Y-110868609D01*
X160980074Y-110868609D02*
X160932455Y-110773371D01*
X160932455Y-110773371D02*
X160837217Y-110725752D01*
X160837217Y-110725752D02*
X160646741Y-110725752D01*
X160646741Y-110725752D02*
X160551503Y-110773371D01*
X160980074Y-111344800D02*
X160884836Y-111392419D01*
X160884836Y-111392419D02*
X160646741Y-111392419D01*
X160646741Y-111392419D02*
X160551503Y-111344800D01*
X160551503Y-111344800D02*
X160503884Y-111249561D01*
X160503884Y-111249561D02*
X160503884Y-111154323D01*
X160503884Y-111154323D02*
X160551503Y-111059085D01*
X160551503Y-111059085D02*
X160646741Y-111011466D01*
X160646741Y-111011466D02*
X160884836Y-111011466D01*
X160884836Y-111011466D02*
X160980074Y-110963847D01*
X161884836Y-111344800D02*
X161789598Y-111392419D01*
X161789598Y-111392419D02*
X161599122Y-111392419D01*
X161599122Y-111392419D02*
X161503884Y-111344800D01*
X161503884Y-111344800D02*
X161456265Y-111297180D01*
X161456265Y-111297180D02*
X161408646Y-111201942D01*
X161408646Y-111201942D02*
X161408646Y-110916228D01*
X161408646Y-110916228D02*
X161456265Y-110820990D01*
X161456265Y-110820990D02*
X161503884Y-110773371D01*
X161503884Y-110773371D02*
X161599122Y-110725752D01*
X161599122Y-110725752D02*
X161789598Y-110725752D01*
X161789598Y-110725752D02*
X161884836Y-110773371D01*
X162313408Y-111392419D02*
X162313408Y-110392419D01*
X162408646Y-111011466D02*
X162694360Y-111392419D01*
X162694360Y-110725752D02*
X162313408Y-111106704D01*
X163694360Y-111297180D02*
X163646741Y-111344800D01*
X163646741Y-111344800D02*
X163503884Y-111392419D01*
X163503884Y-111392419D02*
X163408646Y-111392419D01*
X163408646Y-111392419D02*
X163265789Y-111344800D01*
X163265789Y-111344800D02*
X163170551Y-111249561D01*
X163170551Y-111249561D02*
X163122932Y-111154323D01*
X163122932Y-111154323D02*
X163075313Y-110963847D01*
X163075313Y-110963847D02*
X163075313Y-110820990D01*
X163075313Y-110820990D02*
X163122932Y-110630514D01*
X163122932Y-110630514D02*
X163170551Y-110535276D01*
X163170551Y-110535276D02*
X163265789Y-110440038D01*
X163265789Y-110440038D02*
X163408646Y-110392419D01*
X163408646Y-110392419D02*
X163503884Y-110392419D01*
X163503884Y-110392419D02*
X163646741Y-110440038D01*
X163646741Y-110440038D02*
X163694360Y-110487657D01*
X164265789Y-111392419D02*
X164170551Y-111344800D01*
X164170551Y-111344800D02*
X164122932Y-111249561D01*
X164122932Y-111249561D02*
X164122932Y-110392419D01*
X165075313Y-110725752D02*
X165075313Y-111392419D01*
X164646742Y-110725752D02*
X164646742Y-111249561D01*
X164646742Y-111249561D02*
X164694361Y-111344800D01*
X164694361Y-111344800D02*
X164789599Y-111392419D01*
X164789599Y-111392419D02*
X164932456Y-111392419D01*
X164932456Y-111392419D02*
X165027694Y-111344800D01*
X165027694Y-111344800D02*
X165075313Y-111297180D01*
X165551504Y-111392419D02*
X165551504Y-110392419D01*
X165551504Y-110773371D02*
X165646742Y-110725752D01*
X165646742Y-110725752D02*
X165837218Y-110725752D01*
X165837218Y-110725752D02*
X165932456Y-110773371D01*
X165932456Y-110773371D02*
X165980075Y-110820990D01*
X165980075Y-110820990D02*
X166027694Y-110916228D01*
X166027694Y-110916228D02*
X166027694Y-111201942D01*
X166027694Y-111201942D02*
X165980075Y-111297180D01*
X165980075Y-111297180D02*
X165932456Y-111344800D01*
X165932456Y-111344800D02*
X165837218Y-111392419D01*
X165837218Y-111392419D02*
X165646742Y-111392419D01*
X165646742Y-111392419D02*
X165551504Y-111344800D01*
X166456266Y-111297180D02*
X166503885Y-111344800D01*
X166503885Y-111344800D02*
X166456266Y-111392419D01*
X166456266Y-111392419D02*
X166408647Y-111344800D01*
X166408647Y-111344800D02*
X166456266Y-111297180D01*
X166456266Y-111297180D02*
X166456266Y-111392419D01*
X166456266Y-111011466D02*
X166408647Y-110440038D01*
X166408647Y-110440038D02*
X166456266Y-110392419D01*
X166456266Y-110392419D02*
X166503885Y-110440038D01*
X166503885Y-110440038D02*
X166456266Y-111011466D01*
X166456266Y-111011466D02*
X166456266Y-110392419D01*
X156452419Y-83558972D02*
X156452419Y-82987544D01*
X157452419Y-83273258D02*
X156452419Y-83273258D01*
X157452419Y-82654210D02*
X156785752Y-82654210D01*
X156976228Y-82654210D02*
X156880990Y-82606591D01*
X156880990Y-82606591D02*
X156833371Y-82558972D01*
X156833371Y-82558972D02*
X156785752Y-82463734D01*
X156785752Y-82463734D02*
X156785752Y-82368496D01*
X157452419Y-81606591D02*
X156928609Y-81606591D01*
X156928609Y-81606591D02*
X156833371Y-81654210D01*
X156833371Y-81654210D02*
X156785752Y-81749448D01*
X156785752Y-81749448D02*
X156785752Y-81939924D01*
X156785752Y-81939924D02*
X156833371Y-82035162D01*
X157404800Y-81606591D02*
X157452419Y-81701829D01*
X157452419Y-81701829D02*
X157452419Y-81939924D01*
X157452419Y-81939924D02*
X157404800Y-82035162D01*
X157404800Y-82035162D02*
X157309561Y-82082781D01*
X157309561Y-82082781D02*
X157214323Y-82082781D01*
X157214323Y-82082781D02*
X157119085Y-82035162D01*
X157119085Y-82035162D02*
X157071466Y-81939924D01*
X157071466Y-81939924D02*
X157071466Y-81701829D01*
X157071466Y-81701829D02*
X157023847Y-81606591D01*
X156785752Y-81273257D02*
X156785752Y-80892305D01*
X157452419Y-81130400D02*
X156595276Y-81130400D01*
X156595276Y-81130400D02*
X156500038Y-81082781D01*
X156500038Y-81082781D02*
X156452419Y-80987543D01*
X156452419Y-80987543D02*
X156452419Y-80892305D01*
X156785752Y-80701828D02*
X156785752Y-80320876D01*
X157452419Y-80558971D02*
X156595276Y-80558971D01*
X156595276Y-80558971D02*
X156500038Y-80511352D01*
X156500038Y-80511352D02*
X156452419Y-80416114D01*
X156452419Y-80416114D02*
X156452419Y-80320876D01*
X157452419Y-79987542D02*
X156785752Y-79987542D01*
X156452419Y-79987542D02*
X156500038Y-80035161D01*
X156500038Y-80035161D02*
X156547657Y-79987542D01*
X156547657Y-79987542D02*
X156500038Y-79939923D01*
X156500038Y-79939923D02*
X156452419Y-79987542D01*
X156452419Y-79987542D02*
X156547657Y-79987542D01*
X157404800Y-79082781D02*
X157452419Y-79178019D01*
X157452419Y-79178019D02*
X157452419Y-79368495D01*
X157452419Y-79368495D02*
X157404800Y-79463733D01*
X157404800Y-79463733D02*
X157357180Y-79511352D01*
X157357180Y-79511352D02*
X157261942Y-79558971D01*
X157261942Y-79558971D02*
X156976228Y-79558971D01*
X156976228Y-79558971D02*
X156880990Y-79511352D01*
X156880990Y-79511352D02*
X156833371Y-79463733D01*
X156833371Y-79463733D02*
X156785752Y-79368495D01*
X156785752Y-79368495D02*
X156785752Y-79178019D01*
X156785752Y-79178019D02*
X156833371Y-79082781D01*
X157452419Y-77416114D02*
X157452419Y-77892304D01*
X157452419Y-77892304D02*
X156452419Y-77892304D01*
X157452419Y-77082780D02*
X156785752Y-77082780D01*
X156452419Y-77082780D02*
X156500038Y-77130399D01*
X156500038Y-77130399D02*
X156547657Y-77082780D01*
X156547657Y-77082780D02*
X156500038Y-77035161D01*
X156500038Y-77035161D02*
X156452419Y-77082780D01*
X156452419Y-77082780D02*
X156547657Y-77082780D01*
X156785752Y-76178019D02*
X157595276Y-76178019D01*
X157595276Y-76178019D02*
X157690514Y-76225638D01*
X157690514Y-76225638D02*
X157738133Y-76273257D01*
X157738133Y-76273257D02*
X157785752Y-76368495D01*
X157785752Y-76368495D02*
X157785752Y-76511352D01*
X157785752Y-76511352D02*
X157738133Y-76606590D01*
X157404800Y-76178019D02*
X157452419Y-76273257D01*
X157452419Y-76273257D02*
X157452419Y-76463733D01*
X157452419Y-76463733D02*
X157404800Y-76558971D01*
X157404800Y-76558971D02*
X157357180Y-76606590D01*
X157357180Y-76606590D02*
X157261942Y-76654209D01*
X157261942Y-76654209D02*
X156976228Y-76654209D01*
X156976228Y-76654209D02*
X156880990Y-76606590D01*
X156880990Y-76606590D02*
X156833371Y-76558971D01*
X156833371Y-76558971D02*
X156785752Y-76463733D01*
X156785752Y-76463733D02*
X156785752Y-76273257D01*
X156785752Y-76273257D02*
X156833371Y-76178019D01*
X157452419Y-75701828D02*
X156452419Y-75701828D01*
X157452419Y-75273257D02*
X156928609Y-75273257D01*
X156928609Y-75273257D02*
X156833371Y-75320876D01*
X156833371Y-75320876D02*
X156785752Y-75416114D01*
X156785752Y-75416114D02*
X156785752Y-75558971D01*
X156785752Y-75558971D02*
X156833371Y-75654209D01*
X156833371Y-75654209D02*
X156880990Y-75701828D01*
X156785752Y-74939923D02*
X156785752Y-74558971D01*
X156452419Y-74797066D02*
X157309561Y-74797066D01*
X157309561Y-74797066D02*
X157404800Y-74749447D01*
X157404800Y-74749447D02*
X157452419Y-74654209D01*
X157452419Y-74654209D02*
X157452419Y-74558971D01*
X157404800Y-74273256D02*
X157452419Y-74178018D01*
X157452419Y-74178018D02*
X157452419Y-73987542D01*
X157452419Y-73987542D02*
X157404800Y-73892304D01*
X157404800Y-73892304D02*
X157309561Y-73844685D01*
X157309561Y-73844685D02*
X157261942Y-73844685D01*
X157261942Y-73844685D02*
X157166704Y-73892304D01*
X157166704Y-73892304D02*
X157119085Y-73987542D01*
X157119085Y-73987542D02*
X157119085Y-74130399D01*
X157119085Y-74130399D02*
X157071466Y-74225637D01*
X157071466Y-74225637D02*
X156976228Y-74273256D01*
X156976228Y-74273256D02*
X156928609Y-74273256D01*
X156928609Y-74273256D02*
X156833371Y-74225637D01*
X156833371Y-74225637D02*
X156785752Y-74130399D01*
X156785752Y-74130399D02*
X156785752Y-73987542D01*
X156785752Y-73987542D02*
X156833371Y-73892304D01*
D11*
X169598095Y-98164819D02*
X169598095Y-98974342D01*
X169598095Y-98974342D02*
X169645714Y-99069580D01*
X169645714Y-99069580D02*
X169693333Y-99117200D01*
X169693333Y-99117200D02*
X169788571Y-99164819D01*
X169788571Y-99164819D02*
X169979047Y-99164819D01*
X169979047Y-99164819D02*
X170074285Y-99117200D01*
X170074285Y-99117200D02*
X170121904Y-99069580D01*
X170121904Y-99069580D02*
X170169523Y-98974342D01*
X170169523Y-98974342D02*
X170169523Y-98164819D01*
X170598095Y-98260057D02*
X170645714Y-98212438D01*
X170645714Y-98212438D02*
X170740952Y-98164819D01*
X170740952Y-98164819D02*
X170979047Y-98164819D01*
X170979047Y-98164819D02*
X171074285Y-98212438D01*
X171074285Y-98212438D02*
X171121904Y-98260057D01*
X171121904Y-98260057D02*
X171169523Y-98355295D01*
X171169523Y-98355295D02*
X171169523Y-98450533D01*
X171169523Y-98450533D02*
X171121904Y-98593390D01*
X171121904Y-98593390D02*
X170550476Y-99164819D01*
X170550476Y-99164819D02*
X171169523Y-99164819D01*
X164484819Y-59551904D02*
X165294342Y-59551904D01*
X165294342Y-59551904D02*
X165389580Y-59504285D01*
X165389580Y-59504285D02*
X165437200Y-59456666D01*
X165437200Y-59456666D02*
X165484819Y-59361428D01*
X165484819Y-59361428D02*
X165484819Y-59170952D01*
X165484819Y-59170952D02*
X165437200Y-59075714D01*
X165437200Y-59075714D02*
X165389580Y-59028095D01*
X165389580Y-59028095D02*
X165294342Y-58980476D01*
X165294342Y-58980476D02*
X164484819Y-58980476D01*
X165484819Y-57980476D02*
X165484819Y-58551904D01*
X165484819Y-58266190D02*
X164484819Y-58266190D01*
X164484819Y-58266190D02*
X164627676Y-58361428D01*
X164627676Y-58361428D02*
X164722914Y-58456666D01*
X164722914Y-58456666D02*
X164770533Y-58551904D01*
X174674819Y-90906666D02*
X174198628Y-91239999D01*
X174674819Y-91478094D02*
X173674819Y-91478094D01*
X173674819Y-91478094D02*
X173674819Y-91097142D01*
X173674819Y-91097142D02*
X173722438Y-91001904D01*
X173722438Y-91001904D02*
X173770057Y-90954285D01*
X173770057Y-90954285D02*
X173865295Y-90906666D01*
X173865295Y-90906666D02*
X174008152Y-90906666D01*
X174008152Y-90906666D02*
X174103390Y-90954285D01*
X174103390Y-90954285D02*
X174151009Y-91001904D01*
X174151009Y-91001904D02*
X174198628Y-91097142D01*
X174198628Y-91097142D02*
X174198628Y-91478094D01*
X173674819Y-90001904D02*
X173674819Y-90478094D01*
X173674819Y-90478094D02*
X174151009Y-90525713D01*
X174151009Y-90525713D02*
X174103390Y-90478094D01*
X174103390Y-90478094D02*
X174055771Y-90382856D01*
X174055771Y-90382856D02*
X174055771Y-90144761D01*
X174055771Y-90144761D02*
X174103390Y-90049523D01*
X174103390Y-90049523D02*
X174151009Y-90001904D01*
X174151009Y-90001904D02*
X174246247Y-89954285D01*
X174246247Y-89954285D02*
X174484342Y-89954285D01*
X174484342Y-89954285D02*
X174579580Y-90001904D01*
X174579580Y-90001904D02*
X174627200Y-90049523D01*
X174627200Y-90049523D02*
X174674819Y-90144761D01*
X174674819Y-90144761D02*
X174674819Y-90382856D01*
X174674819Y-90382856D02*
X174627200Y-90478094D01*
X174627200Y-90478094D02*
X174579580Y-90525713D01*
X165484819Y-92206666D02*
X165008628Y-92539999D01*
X165484819Y-92778094D02*
X164484819Y-92778094D01*
X164484819Y-92778094D02*
X164484819Y-92397142D01*
X164484819Y-92397142D02*
X164532438Y-92301904D01*
X164532438Y-92301904D02*
X164580057Y-92254285D01*
X164580057Y-92254285D02*
X164675295Y-92206666D01*
X164675295Y-92206666D02*
X164818152Y-92206666D01*
X164818152Y-92206666D02*
X164913390Y-92254285D01*
X164913390Y-92254285D02*
X164961009Y-92301904D01*
X164961009Y-92301904D02*
X165008628Y-92397142D01*
X165008628Y-92397142D02*
X165008628Y-92778094D01*
X164818152Y-91349523D02*
X165484819Y-91349523D01*
X164437200Y-91587618D02*
X165151485Y-91825713D01*
X165151485Y-91825713D02*
X165151485Y-91206666D01*
X165554819Y-79456666D02*
X165078628Y-79789999D01*
X165554819Y-80028094D02*
X164554819Y-80028094D01*
X164554819Y-80028094D02*
X164554819Y-79647142D01*
X164554819Y-79647142D02*
X164602438Y-79551904D01*
X164602438Y-79551904D02*
X164650057Y-79504285D01*
X164650057Y-79504285D02*
X164745295Y-79456666D01*
X164745295Y-79456666D02*
X164888152Y-79456666D01*
X164888152Y-79456666D02*
X164983390Y-79504285D01*
X164983390Y-79504285D02*
X165031009Y-79551904D01*
X165031009Y-79551904D02*
X165078628Y-79647142D01*
X165078628Y-79647142D02*
X165078628Y-80028094D01*
X164554819Y-79123332D02*
X164554819Y-78504285D01*
X164554819Y-78504285D02*
X164935771Y-78837618D01*
X164935771Y-78837618D02*
X164935771Y-78694761D01*
X164935771Y-78694761D02*
X164983390Y-78599523D01*
X164983390Y-78599523D02*
X165031009Y-78551904D01*
X165031009Y-78551904D02*
X165126247Y-78504285D01*
X165126247Y-78504285D02*
X165364342Y-78504285D01*
X165364342Y-78504285D02*
X165459580Y-78551904D01*
X165459580Y-78551904D02*
X165507200Y-78599523D01*
X165507200Y-78599523D02*
X165554819Y-78694761D01*
X165554819Y-78694761D02*
X165554819Y-78980475D01*
X165554819Y-78980475D02*
X165507200Y-79075713D01*
X165507200Y-79075713D02*
X165459580Y-79123332D01*
X165094819Y-66856666D02*
X164618628Y-67189999D01*
X165094819Y-67428094D02*
X164094819Y-67428094D01*
X164094819Y-67428094D02*
X164094819Y-67047142D01*
X164094819Y-67047142D02*
X164142438Y-66951904D01*
X164142438Y-66951904D02*
X164190057Y-66904285D01*
X164190057Y-66904285D02*
X164285295Y-66856666D01*
X164285295Y-66856666D02*
X164428152Y-66856666D01*
X164428152Y-66856666D02*
X164523390Y-66904285D01*
X164523390Y-66904285D02*
X164571009Y-66951904D01*
X164571009Y-66951904D02*
X164618628Y-67047142D01*
X164618628Y-67047142D02*
X164618628Y-67428094D01*
X164190057Y-66475713D02*
X164142438Y-66428094D01*
X164142438Y-66428094D02*
X164094819Y-66332856D01*
X164094819Y-66332856D02*
X164094819Y-66094761D01*
X164094819Y-66094761D02*
X164142438Y-65999523D01*
X164142438Y-65999523D02*
X164190057Y-65951904D01*
X164190057Y-65951904D02*
X164285295Y-65904285D01*
X164285295Y-65904285D02*
X164380533Y-65904285D01*
X164380533Y-65904285D02*
X164523390Y-65951904D01*
X164523390Y-65951904D02*
X165094819Y-66523332D01*
X165094819Y-66523332D02*
X165094819Y-65904285D01*
X174754819Y-78376666D02*
X174278628Y-78709999D01*
X174754819Y-78948094D02*
X173754819Y-78948094D01*
X173754819Y-78948094D02*
X173754819Y-78567142D01*
X173754819Y-78567142D02*
X173802438Y-78471904D01*
X173802438Y-78471904D02*
X173850057Y-78424285D01*
X173850057Y-78424285D02*
X173945295Y-78376666D01*
X173945295Y-78376666D02*
X174088152Y-78376666D01*
X174088152Y-78376666D02*
X174183390Y-78424285D01*
X174183390Y-78424285D02*
X174231009Y-78471904D01*
X174231009Y-78471904D02*
X174278628Y-78567142D01*
X174278628Y-78567142D02*
X174278628Y-78948094D01*
X174754819Y-77424285D02*
X174754819Y-77995713D01*
X174754819Y-77709999D02*
X173754819Y-77709999D01*
X173754819Y-77709999D02*
X173897676Y-77805237D01*
X173897676Y-77805237D02*
X173992914Y-77900475D01*
X173992914Y-77900475D02*
X174040533Y-77995713D01*
X176256666Y-64509819D02*
X176256666Y-65224104D01*
X176256666Y-65224104D02*
X176209047Y-65366961D01*
X176209047Y-65366961D02*
X176113809Y-65462200D01*
X176113809Y-65462200D02*
X175970952Y-65509819D01*
X175970952Y-65509819D02*
X175875714Y-65509819D01*
X177256666Y-65509819D02*
X176685238Y-65509819D01*
X176970952Y-65509819D02*
X176970952Y-64509819D01*
X176970952Y-64509819D02*
X176875714Y-64652676D01*
X176875714Y-64652676D02*
X176780476Y-64747914D01*
X176780476Y-64747914D02*
X176685238Y-64795533D01*
X168031905Y-89444819D02*
X168031905Y-88444819D01*
X168031905Y-88444819D02*
X168270000Y-88444819D01*
X168270000Y-88444819D02*
X168412857Y-88492438D01*
X168412857Y-88492438D02*
X168508095Y-88587676D01*
X168508095Y-88587676D02*
X168555714Y-88682914D01*
X168555714Y-88682914D02*
X168603333Y-88873390D01*
X168603333Y-88873390D02*
X168603333Y-89016247D01*
X168603333Y-89016247D02*
X168555714Y-89206723D01*
X168555714Y-89206723D02*
X168508095Y-89301961D01*
X168508095Y-89301961D02*
X168412857Y-89397200D01*
X168412857Y-89397200D02*
X168270000Y-89444819D01*
X168270000Y-89444819D02*
X168031905Y-89444819D01*
X168936667Y-88444819D02*
X169555714Y-88444819D01*
X169555714Y-88444819D02*
X169222381Y-88825771D01*
X169222381Y-88825771D02*
X169365238Y-88825771D01*
X169365238Y-88825771D02*
X169460476Y-88873390D01*
X169460476Y-88873390D02*
X169508095Y-88921009D01*
X169508095Y-88921009D02*
X169555714Y-89016247D01*
X169555714Y-89016247D02*
X169555714Y-89254342D01*
X169555714Y-89254342D02*
X169508095Y-89349580D01*
X169508095Y-89349580D02*
X169460476Y-89397200D01*
X169460476Y-89397200D02*
X169365238Y-89444819D01*
X169365238Y-89444819D02*
X169079524Y-89444819D01*
X169079524Y-89444819D02*
X168984286Y-89397200D01*
X168984286Y-89397200D02*
X168936667Y-89349580D01*
X168011905Y-78844819D02*
X168011905Y-77844819D01*
X168011905Y-77844819D02*
X168250000Y-77844819D01*
X168250000Y-77844819D02*
X168392857Y-77892438D01*
X168392857Y-77892438D02*
X168488095Y-77987676D01*
X168488095Y-77987676D02*
X168535714Y-78082914D01*
X168535714Y-78082914D02*
X168583333Y-78273390D01*
X168583333Y-78273390D02*
X168583333Y-78416247D01*
X168583333Y-78416247D02*
X168535714Y-78606723D01*
X168535714Y-78606723D02*
X168488095Y-78701961D01*
X168488095Y-78701961D02*
X168392857Y-78797200D01*
X168392857Y-78797200D02*
X168250000Y-78844819D01*
X168250000Y-78844819D02*
X168011905Y-78844819D01*
X168964286Y-77940057D02*
X169011905Y-77892438D01*
X169011905Y-77892438D02*
X169107143Y-77844819D01*
X169107143Y-77844819D02*
X169345238Y-77844819D01*
X169345238Y-77844819D02*
X169440476Y-77892438D01*
X169440476Y-77892438D02*
X169488095Y-77940057D01*
X169488095Y-77940057D02*
X169535714Y-78035295D01*
X169535714Y-78035295D02*
X169535714Y-78130533D01*
X169535714Y-78130533D02*
X169488095Y-78273390D01*
X169488095Y-78273390D02*
X168916667Y-78844819D01*
X168916667Y-78844819D02*
X169535714Y-78844819D01*
X167786905Y-68154819D02*
X167786905Y-67154819D01*
X167786905Y-67154819D02*
X168025000Y-67154819D01*
X168025000Y-67154819D02*
X168167857Y-67202438D01*
X168167857Y-67202438D02*
X168263095Y-67297676D01*
X168263095Y-67297676D02*
X168310714Y-67392914D01*
X168310714Y-67392914D02*
X168358333Y-67583390D01*
X168358333Y-67583390D02*
X168358333Y-67726247D01*
X168358333Y-67726247D02*
X168310714Y-67916723D01*
X168310714Y-67916723D02*
X168263095Y-68011961D01*
X168263095Y-68011961D02*
X168167857Y-68107200D01*
X168167857Y-68107200D02*
X168025000Y-68154819D01*
X168025000Y-68154819D02*
X167786905Y-68154819D01*
X169310714Y-68154819D02*
X168739286Y-68154819D01*
X169025000Y-68154819D02*
X169025000Y-67154819D01*
X169025000Y-67154819D02*
X168929762Y-67297676D01*
X168929762Y-67297676D02*
X168834524Y-67392914D01*
X168834524Y-67392914D02*
X168739286Y-67440533D01*
D12*
%TO.C,U2*%
X171360000Y-99710000D02*
G75*
G02*
X169360000Y-99710000I-1000000J0D01*
G01*
X173010000Y-109990000D02*
X173010000Y-99710000D01*
X173010000Y-99710000D02*
X171360000Y-99710000D01*
X169360000Y-99710000D02*
X167710000Y-99710000D01*
X167710000Y-109990000D02*
X173010000Y-109990000D01*
X167710000Y-99710000D02*
X167710000Y-109990000D01*
%TO.C,U1*%
X166030000Y-61440000D02*
X176310000Y-61440000D01*
X176310000Y-61440000D02*
X176310000Y-56140000D01*
X166030000Y-59790000D02*
X166030000Y-61440000D01*
X166030000Y-56140000D02*
X166030000Y-57790000D01*
X176310000Y-56140000D02*
X166030000Y-56140000D01*
X166030000Y-57790000D02*
G75*
G02*
X166030000Y-59790000I0J-1000000D01*
G01*
%TO.C,R5*%
X176590000Y-94780000D02*
X176590000Y-94010000D01*
X176590000Y-86700000D02*
X176590000Y-87470000D01*
X175220000Y-94010000D02*
X177960000Y-94010000D01*
X177960000Y-87470000D01*
X175220000Y-87470000D01*
X175220000Y-94010000D01*
%TO.C,R4*%
X162660000Y-88000000D02*
X162660000Y-88770000D01*
X162660000Y-96080000D02*
X162660000Y-95310000D01*
X164030000Y-88770000D02*
X161290000Y-88770000D01*
X161290000Y-95310000D01*
X164030000Y-95310000D01*
X164030000Y-88770000D01*
%TO.C,R3*%
X162730000Y-75250000D02*
X162730000Y-76020000D01*
X162730000Y-83330000D02*
X162730000Y-82560000D01*
X164100000Y-76020000D02*
X161360000Y-76020000D01*
X161360000Y-82560000D01*
X164100000Y-82560000D01*
X164100000Y-76020000D01*
%TO.C,R2*%
X162270000Y-62650000D02*
X162270000Y-63420000D01*
X162270000Y-70730000D02*
X162270000Y-69960000D01*
X163640000Y-63420000D02*
X160900000Y-63420000D01*
X160900000Y-69960000D01*
X163640000Y-69960000D01*
X163640000Y-63420000D01*
%TO.C,R1*%
X176670000Y-82250000D02*
X176670000Y-81480000D01*
X176670000Y-74170000D02*
X176670000Y-74940000D01*
X175300000Y-81480000D02*
X178040000Y-81480000D01*
X178040000Y-74940000D01*
X175300000Y-74940000D01*
X175300000Y-81480000D01*
%TO.C,J1*%
X175210000Y-66055000D02*
X176590000Y-66055000D01*
X175210000Y-67435000D02*
X175210000Y-66055000D01*
X175210000Y-68705000D02*
X175210000Y-71355000D01*
X175210000Y-68705000D02*
X177970000Y-68705000D01*
X175210000Y-71355000D02*
X177970000Y-71355000D01*
X177970000Y-68705000D02*
X177970000Y-71355000D01*
%TO.C,D3*%
X166210000Y-91405000D02*
X166210000Y-94495000D01*
X166210000Y-91405170D02*
G75*
G02*
X171760000Y-92950000I2560000J-1544830D01*
G01*
X171760000Y-92950000D02*
G75*
G02*
X166210000Y-94494830I-2990000J0D01*
G01*
X171270000Y-92950000D02*
G75*
G02*
X166270000Y-92950000I-2500000J0D01*
G01*
X166270000Y-92950000D02*
G75*
G02*
X171270000Y-92950000I2500000J0D01*
G01*
%TO.C,D2*%
X166190000Y-80805000D02*
X166190000Y-83895000D01*
X166190000Y-80805170D02*
G75*
G02*
X171740000Y-82350000I2560000J-1544830D01*
G01*
X171740000Y-82350000D02*
G75*
G02*
X166190000Y-83894830I-2990000J0D01*
G01*
X171250000Y-82350000D02*
G75*
G02*
X166250000Y-82350000I-2500000J0D01*
G01*
X166250000Y-82350000D02*
G75*
G02*
X171250000Y-82350000I2500000J0D01*
G01*
%TO.C,D1*%
X165965000Y-70115000D02*
X165965000Y-73205000D01*
X165965000Y-70115170D02*
G75*
G02*
X171515000Y-71660000I2560000J-1544830D01*
G01*
X171515000Y-71660000D02*
G75*
G02*
X165965000Y-73204830I-2990000J0D01*
G01*
X171025000Y-71660000D02*
G75*
G02*
X166025000Y-71660000I-2500000J0D01*
G01*
X166025000Y-71660000D02*
G75*
G02*
X171025000Y-71660000I2500000J0D01*
G01*
%TO.C,C2*%
X158705000Y-105054775D02*
X158705000Y-104554775D01*
X158455000Y-104804775D02*
X158955000Y-104804775D01*
X157600000Y-102250000D02*
X159140000Y-102250000D01*
X161220000Y-102250000D02*
X162760000Y-102250000D01*
X157600000Y-102210000D02*
X159140000Y-102210000D01*
X161220000Y-102210000D02*
X162760000Y-102210000D01*
X157601000Y-102170000D02*
X159140000Y-102170000D01*
X161220000Y-102170000D02*
X162759000Y-102170000D01*
X157603000Y-102130000D02*
X159140000Y-102130000D01*
X161220000Y-102130000D02*
X162757000Y-102130000D01*
X157605000Y-102090000D02*
X159140000Y-102090000D01*
X161220000Y-102090000D02*
X162755000Y-102090000D01*
X157608000Y-102050000D02*
X159140000Y-102050000D01*
X161220000Y-102050000D02*
X162752000Y-102050000D01*
X157611000Y-102010000D02*
X159140000Y-102010000D01*
X161220000Y-102010000D02*
X162749000Y-102010000D01*
X157615000Y-101970000D02*
X159140000Y-101970000D01*
X161220000Y-101970000D02*
X162745000Y-101970000D01*
X157620000Y-101930000D02*
X159140000Y-101930000D01*
X161220000Y-101930000D02*
X162740000Y-101930000D01*
X157625000Y-101890000D02*
X159140000Y-101890000D01*
X161220000Y-101890000D02*
X162735000Y-101890000D01*
X157631000Y-101850000D02*
X159140000Y-101850000D01*
X161220000Y-101850000D02*
X162729000Y-101850000D01*
X157637000Y-101810000D02*
X159140000Y-101810000D01*
X161220000Y-101810000D02*
X162723000Y-101810000D01*
X157644000Y-101770000D02*
X159140000Y-101770000D01*
X161220000Y-101770000D02*
X162716000Y-101770000D01*
X157652000Y-101730000D02*
X159140000Y-101730000D01*
X161220000Y-101730000D02*
X162708000Y-101730000D01*
X157661000Y-101690000D02*
X159140000Y-101690000D01*
X161220000Y-101690000D02*
X162699000Y-101690000D01*
X157670000Y-101650000D02*
X159140000Y-101650000D01*
X161220000Y-101650000D02*
X162690000Y-101650000D01*
X157679000Y-101610000D02*
X159140000Y-101610000D01*
X161220000Y-101610000D02*
X162681000Y-101610000D01*
X157690000Y-101570000D02*
X159140000Y-101570000D01*
X161220000Y-101570000D02*
X162670000Y-101570000D01*
X157701000Y-101530000D02*
X159140000Y-101530000D01*
X161220000Y-101530000D02*
X162659000Y-101530000D01*
X157713000Y-101490000D02*
X159140000Y-101490000D01*
X161220000Y-101490000D02*
X162647000Y-101490000D01*
X157725000Y-101450000D02*
X159140000Y-101450000D01*
X161220000Y-101450000D02*
X162635000Y-101450000D01*
X157738000Y-101410000D02*
X159140000Y-101410000D01*
X161220000Y-101410000D02*
X162622000Y-101410000D01*
X157752000Y-101370000D02*
X159140000Y-101370000D01*
X161220000Y-101370000D02*
X162608000Y-101370000D01*
X157767000Y-101330000D02*
X159140000Y-101330000D01*
X161220000Y-101330000D02*
X162593000Y-101330000D01*
X157782000Y-101290000D02*
X159140000Y-101290000D01*
X161220000Y-101290000D02*
X162578000Y-101290000D01*
X157798000Y-101250000D02*
X159140000Y-101250000D01*
X161220000Y-101250000D02*
X162562000Y-101250000D01*
X157815000Y-101210000D02*
X159140000Y-101210000D01*
X161220000Y-101210000D02*
X162545000Y-101210000D01*
X157833000Y-101170000D02*
X159140000Y-101170000D01*
X161220000Y-101170000D02*
X162527000Y-101170000D01*
X157851000Y-101130000D02*
X159140000Y-101130000D01*
X161220000Y-101130000D02*
X162509000Y-101130000D01*
X157871000Y-101090000D02*
X159140000Y-101090000D01*
X161220000Y-101090000D02*
X162489000Y-101090000D01*
X157891000Y-101050000D02*
X159140000Y-101050000D01*
X161220000Y-101050000D02*
X162469000Y-101050000D01*
X157912000Y-101010000D02*
X159140000Y-101010000D01*
X161220000Y-101010000D02*
X162448000Y-101010000D01*
X157934000Y-100970000D02*
X159140000Y-100970000D01*
X161220000Y-100970000D02*
X162426000Y-100970000D01*
X157957000Y-100930000D02*
X159140000Y-100930000D01*
X161220000Y-100930000D02*
X162403000Y-100930000D01*
X157981000Y-100890000D02*
X159140000Y-100890000D01*
X161220000Y-100890000D02*
X162379000Y-100890000D01*
X158005000Y-100850000D02*
X159140000Y-100850000D01*
X161220000Y-100850000D02*
X162355000Y-100850000D01*
X158031000Y-100810000D02*
X159140000Y-100810000D01*
X161220000Y-100810000D02*
X162329000Y-100810000D01*
X158058000Y-100770000D02*
X159140000Y-100770000D01*
X161220000Y-100770000D02*
X162302000Y-100770000D01*
X158086000Y-100730000D02*
X159140000Y-100730000D01*
X161220000Y-100730000D02*
X162274000Y-100730000D01*
X158115000Y-100690000D02*
X159140000Y-100690000D01*
X161220000Y-100690000D02*
X162245000Y-100690000D01*
X158145000Y-100650000D02*
X159140000Y-100650000D01*
X161220000Y-100650000D02*
X162215000Y-100650000D01*
X158177000Y-100610000D02*
X159140000Y-100610000D01*
X161220000Y-100610000D02*
X162183000Y-100610000D01*
X158210000Y-100570000D02*
X159140000Y-100570000D01*
X161220000Y-100570000D02*
X162150000Y-100570000D01*
X158244000Y-100530000D02*
X159140000Y-100530000D01*
X161220000Y-100530000D02*
X162116000Y-100530000D01*
X158279000Y-100490000D02*
X159140000Y-100490000D01*
X161220000Y-100490000D02*
X162081000Y-100490000D01*
X158316000Y-100450000D02*
X159140000Y-100450000D01*
X161220000Y-100450000D02*
X162044000Y-100450000D01*
X158355000Y-100410000D02*
X159140000Y-100410000D01*
X161220000Y-100410000D02*
X162005000Y-100410000D01*
X158395000Y-100370000D02*
X159140000Y-100370000D01*
X161220000Y-100370000D02*
X161965000Y-100370000D01*
X158437000Y-100330000D02*
X159140000Y-100330000D01*
X161220000Y-100330000D02*
X161923000Y-100330000D01*
X158481000Y-100290000D02*
X159140000Y-100290000D01*
X161220000Y-100290000D02*
X161879000Y-100290000D01*
X158528000Y-100250000D02*
X159140000Y-100250000D01*
X161220000Y-100250000D02*
X161832000Y-100250000D01*
X158576000Y-100210000D02*
X161784000Y-100210000D01*
X158627000Y-100170000D02*
X161733000Y-100170000D01*
X158681000Y-100130000D02*
X161679000Y-100130000D01*
X158737000Y-100090000D02*
X161623000Y-100090000D01*
X158797000Y-100050000D02*
X161563000Y-100050000D01*
X158861000Y-100010000D02*
X161499000Y-100010000D01*
X158929000Y-99970000D02*
X161431000Y-99970000D01*
X159003000Y-99930000D02*
X161357000Y-99930000D01*
X159082000Y-99890000D02*
X161278000Y-99890000D01*
X159169000Y-99850000D02*
X161191000Y-99850000D01*
X159266000Y-99810000D02*
X161094000Y-99810000D01*
X159375000Y-99770000D02*
X160985000Y-99770000D01*
X159503000Y-99730000D02*
X160857000Y-99730000D01*
X159663000Y-99690000D02*
X160697000Y-99690000D01*
X159897000Y-99650000D02*
X160463000Y-99650000D01*
X162800000Y-102250000D02*
G75*
G02*
X157560000Y-102250000I-2620000J0D01*
G01*
X157560000Y-102250000D02*
G75*
G02*
X162800000Y-102250000I2620000J0D01*
G01*
%TO.C,C1*%
X164564775Y-58835000D02*
X164064775Y-58835000D01*
X164314775Y-59085000D02*
X164314775Y-58585000D01*
X161760000Y-59940000D02*
X161760000Y-58400000D01*
X161760000Y-56320000D02*
X161760000Y-54780000D01*
X161720000Y-59940000D02*
X161720000Y-58400000D01*
X161720000Y-56320000D02*
X161720000Y-54780000D01*
X161680000Y-59939000D02*
X161680000Y-58400000D01*
X161680000Y-56320000D02*
X161680000Y-54781000D01*
X161640000Y-59937000D02*
X161640000Y-58400000D01*
X161640000Y-56320000D02*
X161640000Y-54783000D01*
X161600000Y-59935000D02*
X161600000Y-58400000D01*
X161600000Y-56320000D02*
X161600000Y-54785000D01*
X161560000Y-59932000D02*
X161560000Y-58400000D01*
X161560000Y-56320000D02*
X161560000Y-54788000D01*
X161520000Y-59929000D02*
X161520000Y-58400000D01*
X161520000Y-56320000D02*
X161520000Y-54791000D01*
X161480000Y-59925000D02*
X161480000Y-58400000D01*
X161480000Y-56320000D02*
X161480000Y-54795000D01*
X161440000Y-59920000D02*
X161440000Y-58400000D01*
X161440000Y-56320000D02*
X161440000Y-54800000D01*
X161400000Y-59915000D02*
X161400000Y-58400000D01*
X161400000Y-56320000D02*
X161400000Y-54805000D01*
X161360000Y-59909000D02*
X161360000Y-58400000D01*
X161360000Y-56320000D02*
X161360000Y-54811000D01*
X161320000Y-59903000D02*
X161320000Y-58400000D01*
X161320000Y-56320000D02*
X161320000Y-54817000D01*
X161280000Y-59896000D02*
X161280000Y-58400000D01*
X161280000Y-56320000D02*
X161280000Y-54824000D01*
X161240000Y-59888000D02*
X161240000Y-58400000D01*
X161240000Y-56320000D02*
X161240000Y-54832000D01*
X161200000Y-59879000D02*
X161200000Y-58400000D01*
X161200000Y-56320000D02*
X161200000Y-54841000D01*
X161160000Y-59870000D02*
X161160000Y-58400000D01*
X161160000Y-56320000D02*
X161160000Y-54850000D01*
X161120000Y-59861000D02*
X161120000Y-58400000D01*
X161120000Y-56320000D02*
X161120000Y-54859000D01*
X161080000Y-59850000D02*
X161080000Y-58400000D01*
X161080000Y-56320000D02*
X161080000Y-54870000D01*
X161040000Y-59839000D02*
X161040000Y-58400000D01*
X161040000Y-56320000D02*
X161040000Y-54881000D01*
X161000000Y-59827000D02*
X161000000Y-58400000D01*
X161000000Y-56320000D02*
X161000000Y-54893000D01*
X160960000Y-59815000D02*
X160960000Y-58400000D01*
X160960000Y-56320000D02*
X160960000Y-54905000D01*
X160920000Y-59802000D02*
X160920000Y-58400000D01*
X160920000Y-56320000D02*
X160920000Y-54918000D01*
X160880000Y-59788000D02*
X160880000Y-58400000D01*
X160880000Y-56320000D02*
X160880000Y-54932000D01*
X160840000Y-59773000D02*
X160840000Y-58400000D01*
X160840000Y-56320000D02*
X160840000Y-54947000D01*
X160800000Y-59758000D02*
X160800000Y-58400000D01*
X160800000Y-56320000D02*
X160800000Y-54962000D01*
X160760000Y-59742000D02*
X160760000Y-58400000D01*
X160760000Y-56320000D02*
X160760000Y-54978000D01*
X160720000Y-59725000D02*
X160720000Y-58400000D01*
X160720000Y-56320000D02*
X160720000Y-54995000D01*
X160680000Y-59707000D02*
X160680000Y-58400000D01*
X160680000Y-56320000D02*
X160680000Y-55013000D01*
X160640000Y-59689000D02*
X160640000Y-58400000D01*
X160640000Y-56320000D02*
X160640000Y-55031000D01*
X160600000Y-59669000D02*
X160600000Y-58400000D01*
X160600000Y-56320000D02*
X160600000Y-55051000D01*
X160560000Y-59649000D02*
X160560000Y-58400000D01*
X160560000Y-56320000D02*
X160560000Y-55071000D01*
X160520000Y-59628000D02*
X160520000Y-58400000D01*
X160520000Y-56320000D02*
X160520000Y-55092000D01*
X160480000Y-59606000D02*
X160480000Y-58400000D01*
X160480000Y-56320000D02*
X160480000Y-55114000D01*
X160440000Y-59583000D02*
X160440000Y-58400000D01*
X160440000Y-56320000D02*
X160440000Y-55137000D01*
X160400000Y-59559000D02*
X160400000Y-58400000D01*
X160400000Y-56320000D02*
X160400000Y-55161000D01*
X160360000Y-59535000D02*
X160360000Y-58400000D01*
X160360000Y-56320000D02*
X160360000Y-55185000D01*
X160320000Y-59509000D02*
X160320000Y-58400000D01*
X160320000Y-56320000D02*
X160320000Y-55211000D01*
X160280000Y-59482000D02*
X160280000Y-58400000D01*
X160280000Y-56320000D02*
X160280000Y-55238000D01*
X160240000Y-59454000D02*
X160240000Y-58400000D01*
X160240000Y-56320000D02*
X160240000Y-55266000D01*
X160200000Y-59425000D02*
X160200000Y-58400000D01*
X160200000Y-56320000D02*
X160200000Y-55295000D01*
X160160000Y-59395000D02*
X160160000Y-58400000D01*
X160160000Y-56320000D02*
X160160000Y-55325000D01*
X160120000Y-59363000D02*
X160120000Y-58400000D01*
X160120000Y-56320000D02*
X160120000Y-55357000D01*
X160080000Y-59330000D02*
X160080000Y-58400000D01*
X160080000Y-56320000D02*
X160080000Y-55390000D01*
X160040000Y-59296000D02*
X160040000Y-58400000D01*
X160040000Y-56320000D02*
X160040000Y-55424000D01*
X160000000Y-59261000D02*
X160000000Y-58400000D01*
X160000000Y-56320000D02*
X160000000Y-55459000D01*
X159960000Y-59224000D02*
X159960000Y-58400000D01*
X159960000Y-56320000D02*
X159960000Y-55496000D01*
X159920000Y-59185000D02*
X159920000Y-58400000D01*
X159920000Y-56320000D02*
X159920000Y-55535000D01*
X159880000Y-59145000D02*
X159880000Y-58400000D01*
X159880000Y-56320000D02*
X159880000Y-55575000D01*
X159840000Y-59103000D02*
X159840000Y-58400000D01*
X159840000Y-56320000D02*
X159840000Y-55617000D01*
X159800000Y-59059000D02*
X159800000Y-58400000D01*
X159800000Y-56320000D02*
X159800000Y-55661000D01*
X159760000Y-59012000D02*
X159760000Y-58400000D01*
X159760000Y-56320000D02*
X159760000Y-55708000D01*
X159720000Y-58964000D02*
X159720000Y-55756000D01*
X159680000Y-58913000D02*
X159680000Y-55807000D01*
X159640000Y-58859000D02*
X159640000Y-55861000D01*
X159600000Y-58803000D02*
X159600000Y-55917000D01*
X159560000Y-58743000D02*
X159560000Y-55977000D01*
X159520000Y-58679000D02*
X159520000Y-56041000D01*
X159480000Y-58611000D02*
X159480000Y-56109000D01*
X159440000Y-58537000D02*
X159440000Y-56183000D01*
X159400000Y-58458000D02*
X159400000Y-56262000D01*
X159360000Y-58371000D02*
X159360000Y-56349000D01*
X159320000Y-58274000D02*
X159320000Y-56446000D01*
X159280000Y-58165000D02*
X159280000Y-56555000D01*
X159240000Y-58037000D02*
X159240000Y-56683000D01*
X159200000Y-57877000D02*
X159200000Y-56843000D01*
X159160000Y-57643000D02*
X159160000Y-57077000D01*
X164380000Y-57360000D02*
G75*
G02*
X159140000Y-57360000I-2620000J0D01*
G01*
X159140000Y-57360000D02*
G75*
G02*
X164380000Y-57360000I2620000J0D01*
G01*
%TD*%
M02*
